PathFileType	4	(X/Y/Z)	./resultDataOpenSim/trcMotMarkerGrf/sub06/qtm-13-02.trc
DataRate	CameraRate	NumFrames	NumMarkers	Units	OrigDataRate	OrigDataStartFrame	OrigNumFrames
250.000000	250.000000	12	24	m	250.000000	135	537
Frame#	Time	L.Toe.Tip			R.Toe.Tip			L.Ankle.Lat			R.Ankle.Lat			L.Ankle.Med			R.Ankle.Med			L.Heel			R.Heel			L.Knee.Lat			R.Knee.Lat			L.Knee.Med			R.Knee.Med			L.Thigh.Upper			R.Thigh.Upper			L.ASIS			R.ASIS			V.Sacral			L.Acromium			R.Acromium			C7			L.Elbow			R.Elbow			L.Wrist.Lat			R.Wrist.Lat
		X1	Y1	Z1	X2	Y2	Z2	X3	Y3	Z3	X4	Y4	Z4	X5	Y5	Z5	X6	Y6	Z6	X7	Y7	Z7	X8	Y8	Z8	X9	Y9	Z9	X10	Y10	Z10	X11	Y11	Z11	X12	Y12	Z12	X13	Y13	Z13	X14	Y14	Z14	X15	Y15	Z15	X16	Y16	Z16	X17	Y17	Z17	X18	Y18	Z18	X19	Y19	Z19	X20	Y20	Z20	X21	Y21	Z21	X22	Y22	Z22	X23	Y23	Z23	X24	Y24	Z24

135	0.536	-0.15054769	0.12711878	-0.11550685	-0.75660407	0.035007863	0.052661641	-0.27502606	0.10065391	-0.13769274	-0.8887012	0.070644585	0.068143277	-0.27890787	0.11602764	-0.052435356	-0.86358173	0.083725342	-0.018662147	-0.32347174	0.038728181	-0.088847622	-0.94541306	0.050684425	0.0049513583	-0.38555798	0.45408518	-0.13709705	-0.72683835	0.42479675	0.10136934	-0.41138128	0.44182647	-0.013446426	-0.75807267	0.42681646	-0.029643086	-0.57155142	0.80025308	-0.18187511	-0.64512981	0.77667799	0.15826551	-0.51654243	0.84805581	-0.12538859	-0.53809456	0.83432142	0.11840319	-0.71088325	0.90913507	-0.01204916	-0.60278002	1.3316996	-0.1927967	-0.56746787	1.3231574	0.16255078	-0.66389621	1.3542897	-0.0098599249	-0.72064373	1.0452032	-0.24721121	-0.53467349	1.0129288	0.26675549	-0.65046116	0.81751431	-0.3093471	-0.29999256	0.94476197	0.20951468
136	0.54	-0.13603235	0.13125748	-0.11454577	-0.75650857	0.034977446	0.052631674	-0.2599385	0.10236054	-0.13769679	-0.8884034	0.071364536	0.067825987	-0.26471418	0.11718801	-0.052404415	-0.86284995	0.084117881	-0.018931969	-0.30738492	0.039072033	-0.089547212	-0.94502468	0.051743001	0.0044924986	-0.37795497	0.4522964	-0.13650327	-0.723523	0.42401742	0.10123122	-0.40428386	0.4394994	-0.012639694	-0.75393638	0.4261913	-0.029887956	-0.56397001	0.79756844	-0.18193448	-0.6398898	0.77554679	0.15871255	-0.50891389	0.84532444	-0.12533801	-0.53195145	0.83226357	0.11869216	-0.70424248	0.90729762	-0.012383052	-0.59604503	1.3297401	-0.19322233	-0.56063861	1.3211063	0.16231033	-0.6572103	1.3525421	-0.010192486	-0.71528669	1.0439945	-0.24721576	-0.52561038	1.0110069	0.26662689	-0.64766104	0.81605412	-0.31033241	-0.29053456	0.94647221	0.20772626
137	0.544	-0.12209562	0.13516834	-0.11363546	-0.75641473	0.034951867	0.052596235	-0.24540876	0.10398581	-0.13762347	-0.88803653	0.072157196	0.067487837	-0.2509384	0.11831262	-0.052288408	-0.86206782	0.084555209	-0.019203342	-0.29188836	0.039471953	-0.090058755	-0.94462007	0.052875391	0.0040592333	-0.37029805	0.45061548	-0.13592398	-0.72005378	0.42323624	0.10112265	-0.39715918	0.43726342	-0.011878397	-0.74958377	0.42556406	-0.030158873	-0.55636851	0.79485539	-0.1819872	-0.63465584	0.77441011	0.1590536	-0.50121812	0.84258952	-0.1252678	-0.52575638	0.83021676	0.11898972	-0.69748787	0.90554383	-0.013095618	-0.58928947	1.3277961	-0.19364743	-0.55378268	1.3190581	0.16204395	-0.65061864	1.350789	-0.010508472	-0.70969538	1.0427084	-0.24725869	-0.51659159	1.0090782	0.26648215	-0.64466252	0.81465296	-0.31128035	-0.28114529	0.94811633	0.20591776
138	0.548	-0.10871606	0.13877293	-0.1127929	-0.75632253	0.034925348	0.052555658	-0.23145791	0.105454	-0.13745105	-0.88751746	0.073026829	0.067155601	-0.23760191	0.11937965	-0.052093551	-0.86125645	0.085038146	-0.019474383	-0.27699468	0.039906142	-0.090340336	-0.944206	0.054086823	0.0036608879	-0.36251288	0.44909128	-0.13535357	-0.71662626	0.42244702	0.10105023	-0.38999842	0.43512207	-0.011177169	-0.74498923	0.42490604	-0.030452868	-0.54867573	0.79213417	-0.1820381	-0.6294419	0.77327001	0.15928377	-0.49351959	0.83985629	-0.12517846	-0.51953754	0.82818205	0.11931528	-0.69052729	0.90382429	-0.014262863	-0.58251684	1.3258731	-0.19407259	-0.54689878	1.3170169	0.16175727	-0.64397899	1.3490031	-0.010834129	-0.70411989	1.0414177	-0.2472727	-0.50762322	1.0071462	0.26632805	-0.64156169	0.81327648	-0.3122123	-0.27184557	0.94969513	0.20410436
139	0.552	-0.095877547	0.14199964	-0.11204603	-0.7562388	0.034886237	0.052511179	-0.21808989	0.10672279	-0.1371644	-0.88682365	0.073980012	0.066852651	-0.22473706	0.1203687	-0.051825038	-0.86043961	0.085572172	-0.019715757	-0.262711	0.040320514	-0.090383946	-0.943776	0.055388361	0.0032816924	-0.35446585	0.44776307	-0.13476885	-0.71329129	0.42164882	0.10100039	-0.38278937	0.43307538	-0.010553515	-0.74021356	0.42420989	-0.030770175	-0.54091223	0.7894514	-0.18208002	-0.62426353	0.77213682	0.15941054	-0.48586383	0.83712359	-0.12506352	-0.5133798	0.82615493	0.11973727	-0.68339223	0.90210142	-0.015977631	-0.57572646	1.3239743	-0.19449981	-0.53996546	1.3149923	0.16144586	-0.63724186	1.347184	-0.011174734	-0.6986728	1.0401814	-0.24721862	-0.49869949	1.0052218	0.26614476	-0.63844516	0.81189822	-0.31315775	-0.26266701	0.95120713	0.20231194
140	0.556	-0.083574934	0.14478423	-0.1114181	-0.75617829	0.034821707	0.052467019	-0.20530691	0.10776648	-0.13676508	-0.8860606	0.075004354	0.066588139	-0.21236936	0.12125757	-0.051482577	-0.8596262	0.086158503	-0.01990806	-0.24906256	0.040662893	-0.090209955	-0.94331686	0.056792663	0.0029143707	-0.34612603	0.44662636	-0.13416763	-0.70986083	0.4208511	0.10093919	-0.37551993	0.43112737	-0.01002142	-0.73532569	0.42348081	-0.031105276	-0.5331453	0.78686602	-0.18209095	-0.61910793	0.77102855	0.1594362	-0.47821771	0.83439401	-0.12492324	-0.50735468	0.82413376	0.12031788	-0.67625672	0.90038455	-0.018162058	-0.56891161	1.3221028	-0.19493025	-0.53298269	1.313001	0.16110093	-0.63042373	1.3453495	-0.011530909	-0.69324462	1.0389987	-0.2471271	-0.48982348	1.0033241	0.26590918	-0.63531879	0.81052007	-0.31413019	-0.25362146	0.95265247	0.20056042
141	0.56	-0.071809158	0.14707092	-0.1109145	-0.75614892	0.0347314	0.052429862	-0.19311362	0.10856357	-0.13627183	-0.88542349	0.076061991	0.066359397	-0.20052071	0.12200646	-0.051070976	-0.85880388	0.086789962	-0.020061151	-0.23608448	0.040891982	-0.089848926	-0.94281966	0.058307207	0.0025739941	-0.33765645	0.44562632	-0.13359376	-0.70611058	0.42006782	0.10084435	-0.36817814	0.42928762	-0.0095838327	-0.73035556	0.42272277	-0.031441853	-0.52539708	0.7844141	-0.18205831	-0.6138804	0.76995081	0.15930037	-0.47051932	0.83167894	-0.12476447	-0.50140782	0.82215471	0.1209865	-0.6692537	0.89868476	-0.020405295	-0.56206385	1.3202604	-0.19536654	-0.52597357	1.3110572	0.16071286	-0.62355313	1.3435256	-0.011908038	-0.68768367	1.0378438	-0.24704837	-0.48101431	1.0014707	0.26561792	-0.63214077	0.80915948	-0.31512437	-0.24470641	0.9540293	0.19885163
142	0.564	-0.060583919	0.14881832	-0.11052017	-0.75613453	0.03463567	0.052405906	-0.18151348	0.10909881	-0.13571289	-0.88500742	0.077128052	0.066168535	-0.18921916	0.12255484	-0.050612367	-0.85795741	0.087467231	-0.020181483	-0.22381298	0.040971912	-0.089320592	-0.94228478	0.05993481	0.0022853514	-0.32923519	0.44470421	-0.13308873	-0.70200035	0.41930524	0.10072748	-0.36074833	0.42756969	-0.0092285677	-0.72530266	0.42193603	-0.031760643	-0.51761228	0.78209539	-0.18199334	-0.60838141	0.76884632	0.15880516	-0.46277025	0.82899304	-0.12459975	-0.49534799	0.82029196	0.12152834	-0.66232085	0.89698864	-0.022153822	-0.55518586	1.3184476	-0.19581501	-0.5189575	1.3091628	0.16028014	-0.61664413	1.3417351	-0.012311536	-0.68193775	1.0367041	-0.24700643	-0.47229264	0.99966981	0.26528258	-0.62887447	0.80783343	-0.3161278	-0.23592068	0.95532963	0.19716815
143	0.568	-0.049902974	0.15000657	-0.11020184	-0.7561048	0.034560364	0.052397342	-0.17051046	0.10935767	-0.13512024	-0.88468967	0.078226388	0.066035213	-0.17848751	0.12284203	-0.050136236	-0.85707731	0.088217243	-0.020246495	-0.2122781	0.04087059	-0.088646428	-0.94171505	0.061682699	0.0020694297	-0.32087598	0.44383094	-0.13264268	-0.6976282	0.41855486	0.10061758	-0.35320861	0.42598967	-0.0089336026	-0.72015789	0.42111975	-0.032044219	-0.50973735	0.77989841	-0.18191477	-0.60243942	0.76756047	0.15767451	-0.45502591	0.82634543	-0.12444939	-0.48902353	0.81858196	0.12180046	-0.65526646	0.89528193	-0.023044279	-0.54828976	1.316667	-0.1962819	-0.51193643	1.307305	0.15981298	-0.60969912	1.3399918	-0.012742948	-0.67603038	1.035583	-0.24700138	-0.46366645	0.99792256	0.26491317	-0.62549571	0.80655052	-0.31712987	-0.22726581	0.9565434	0.19549238
144	0.572	-0.039767852	0.15063484	-0.10991531	-0.75604331	0.034514344	0.052402876	-0.16011379	0.1093168	-0.13452531	-0.88427689	0.079407499	0.065989315	-0.16832457	0.12282795	-0.049657096	-0.85615193	0.08907745	-0.020226556	-0.20149615	0.040558504	-0.087881874	-0.94111292	0.063564502	0.0019514267	-0.31250576	0.44298926	-0.13222245	-0.69309092	0.41779719	0.1005326	-0.34553551	0.42456532	-0.0086766551	-0.71491395	0.42027225	-0.032276829	-0.501817	0.77782121	-0.18183197	-0.59619394	0.76595083	0.15590642	-0.44732209	0.82373859	-0.12433224	-0.48246643	0.81697535	0.1218819	-0.64792004	0.89357604	-0.023047789	-0.54137569	1.3149192	-0.19677018	-0.50489831	1.3054736	0.15932118	-0.60271722	1.3383	-0.013203907	-0.66999196	1.0344863	-0.24702622	-0.45513503	0.99622718	0.26451344	-0.6219885	0.8053072	-0.31812477	-0.21874026	0.95766615	0.19382378
145	0.576	-0.030182147	0.15071128	-0.10961785	-0.75595556	0.034488931	0.052420491	-0.15033125	0.10894957	-0.13395086	-0.88369698	0.080699502	0.066049543	-0.15871877	0.12249059	-0.049173878	-0.8551756	0.090061648	-0.020111502	-0.19146925	0.040005491	-0.087122724	-0.94048851	0.065585008	0.0019716072	-0.30409757	0.44215264	-0.1318181	-0.68844092	0.41701476	0.1004699	-0.33771384	0.42331153	-0.0084420891	-0.70956973	0.41939287	-0.032448078	-0.49394804	0.77586439	-0.18175671	-0.59005918	0.76409143	0.15405515	-0.43964733	0.8211841	-0.12425059	-0.47581453	0.81539854	0.12193717	-0.64028052	0.89191664	-0.022497024	-0.5344163	1.3132004	-0.19728231	-0.49782711	1.3036783	0.15880325	-0.5956879	1.3366498	-0.013701924	-0.66383642	1.0334132	-0.24707865	-0.44670453	0.99458182	0.26408653	-0.61835255	0.80409355	-0.31911045	-0.21033898	0.95869823	0.19217115
146	0.58	-0.021156227	0.15024839	-0.10927542	-0.75585386	0.034473193	0.05244755	-0.14116065	0.10823952	-0.13340597	-0.8829747	0.082101821	0.066215204	-0.14967449	0.12181201	-0.048686676	-0.85416322	0.091154923	-0.019908866	-0.18219115	0.039185866	-0.086463894	-0.93985674	0.06773105	0.0021692082	-0.29567354	0.44129024	-0.13144513	-0.68368708	0.4162042	0.10042346	-0.32973781	0.42223377	-0.0082269225	-0.70413373	0.41848527	-0.032552214	-0.48616437	0.77402831	-0.18171272	-0.58409165	0.76224497	0.15282508	-0.43195173	0.81871929	-0.1241848	-0.46916001	0.81382664	0.12204175	-0.63260046	0.89034845	-0.021945699	-0.52737331	1.31151	-0.19782034	-0.49071197	1.3019405	0.15825257	-0.58859174	1.3350255	-0.014247254	-0.65756849	1.0323558	-0.24716394	-0.43839121	0.99298697	0.26363301	-0.61460219	0.80290535	-0.32008781	-0.20206062	0.9596373	0.19053548
